<?xml version="1.0" encoding="utf-8"?>
<svg viewBox="0 0 1159.513 517.047" xmlns="http://www.w3.org/2000/svg">
  <rect y="1.782" width="1159.513" height="515.265" style="fill: rgb(93, 141, 93);"/>
  <path d="M 156.031 404.164 L 109.361 404.164 C 108.261 404.164 107.711 403.474 107.711 402.094 L 107.711 166.684 L 54.021 166.684 C 52.641 166.684 51.951 165.997 51.951 164.624 L 52.371 118.364 C 52.371 117.264 52.921 116.714 54.021 116.714 L 210.961 116.714 C 212.334 116.714 213.021 117.264 213.021 118.364 L 213.021 164.624 C 213.021 165.997 212.471 166.684 211.371 166.684 L 157.271 166.684 L 157.681 402.094 C 157.681 403.474 157.131 404.164 156.031 404.164 ZM 300.583 408.294 C 285.71 408.294 272.146 404.507 259.893 396.934 C 247.646 389.361 237.806 379.311 230.373 366.784 C 222.933 354.257 219.213 340.424 219.213 325.284 L 219.633 194.364 C 219.633 179.217 223.28 165.451 230.573 153.064 C 237.873 140.671 247.716 130.757 260.103 123.324 C 272.496 115.891 285.99 112.174 300.583 112.174 C 315.45 112.174 328.94 115.891 341.053 123.324 C 353.166 130.757 362.873 140.671 370.173 153.064 C 377.466 165.451 381.113 179.217 381.113 194.364 L 381.523 325.284 C 381.523 340.424 377.876 354.257 370.583 366.784 C 363.283 379.311 353.51 389.361 341.263 396.934 C 329.01 404.507 315.45 408.294 300.583 408.294 Z M 300.583 358.324 C 308.843 358.324 316.07 354.951 322.263 348.204 C 328.456 341.457 331.553 333.817 331.553 325.284 L 331.143 194.364 C 331.143 185.277 328.25 177.567 322.463 171.234 C 316.683 164.901 309.39 161.734 300.583 161.734 C 292.043 161.734 284.746 164.831 278.693 171.024 C 272.633 177.217 269.603 184.997 269.603 194.364 L 269.603 325.284 C 269.603 334.371 272.633 342.147 278.693 348.614 C 284.746 355.087 292.043 358.324 300.583 358.324 ZM 488.901 403.754 L 414.981 404.164 C 413.601 404.164 412.911 403.474 412.911 402.094 L 413.741 118.364 C 413.741 117.264 414.291 116.714 415.391 116.714 L 492.621 116.304 C 507.761 116.031 521.598 119.611 534.131 127.044 C 546.658 134.477 556.638 144.457 564.071 156.984 C 571.505 169.511 575.221 183.347 575.221 198.494 L 575.221 317.024 C 575.221 332.991 571.368 347.514 563.661 360.594 C 555.948 373.674 545.621 384.067 532.681 391.774 C 519.741 399.481 505.148 403.474 488.901 403.754 Z M 463.711 166.274 L 463.301 353.364 L 488.901 353.364 C 499.088 353.364 507.691 349.784 514.711 342.624 C 521.738 335.464 525.251 326.931 525.251 317.024 L 525.251 198.074 C 525.251 189.267 522.015 181.627 515.541 175.154 C 509.075 168.687 501.435 165.591 492.621 165.864 L 463.711 166.274 ZM 674.343 408.294 C 659.47 408.294 645.906 404.507 633.653 396.934 C 621.406 389.361 611.566 379.311 604.133 366.784 C 596.693 354.257 592.973 340.424 592.973 325.284 L 593.393 194.364 C 593.393 179.217 597.04 165.451 604.333 153.064 C 611.633 140.671 621.476 130.757 633.863 123.324 C 646.256 115.891 659.75 112.174 674.343 112.174 C 689.21 112.174 702.7 115.891 714.813 123.324 C 726.926 130.757 736.633 140.671 743.933 153.064 C 751.226 165.451 754.873 179.217 754.873 194.364 L 755.283 325.284 C 755.283 340.424 751.636 354.257 744.343 366.784 C 737.043 379.311 727.27 389.361 715.023 396.934 C 702.77 404.507 689.21 408.294 674.343 408.294 Z M 674.343 358.324 C 682.603 358.324 689.83 354.951 696.023 348.204 C 702.216 341.457 705.313 333.817 705.313 325.284 L 704.903 194.364 C 704.903 185.277 702.01 177.567 696.223 171.234 C 690.443 164.901 683.15 161.734 674.343 161.734 C 665.803 161.734 658.506 164.831 652.453 171.024 C 646.393 177.217 643.363 184.997 643.363 194.364 L 643.363 325.284 C 643.363 334.371 646.393 342.147 652.453 348.614 C 658.506 355.087 665.803 358.324 674.343 358.324 Z" transform="matrix(1, 0, 0, 1, 0, 0)" style="fill: rgb(180, 214, 173); white-space: pre;"/>
  <path style="fill: rgb(180, 214, 173);" d="M 798.776 287.118 L 837.625 248.492 L 890.122 301.112 L 1072.219 120.379 L 1110.784 159.098 L 891.219 379.22 L 798.776 287.118 Z"/>
  <path style="fill: rgba(77, 115, 77, 0.58);" d="M 890.719 379.22 L 1110.784 159.078 L 1159.513 212.735 L 1159.513 517.078 L 1026.557 517.047 L 890.719 379.22 Z"/>
</svg>